# xmcd
#
# Track frame offsets:
# 150
# 12650
# 14924
# 39564
# 64325
# 86666
# 105028
# 137179
# 164304
# 198368
# 207552
# 238729
# 259318
# 283094
#
# Disc length: 3825 seconds
#
# Revision: 0
# Processed by: cddbd v1.5.2PL0 Copyright (c) Steve Scherf et al.
# Submitted via: Audion 3.0.2 (http://www.panic.com/audion/)
#
DISCID=d30eef0e
DTITLE=Daft Punk - Homework
DYEAR=1900
DGENRE=
TTITLE0=Daftendirekt
TTITLE1=WDPK 83.7 FM
TTITLE2=Revolution 909
TTITLE3=Da Funk
TTITLE4=Phoenix
TTITLE5=Fresh
TTITLE6=Around the World
TTITLE7=Rollin' and Scratchin
TTITLE8=Teachers
TTITLE9=High Fidelity
TTITLE10=Rock 'n Roll
TTITLE11=Oh Yeah
TTITLE12=Burnin
TTITLE13=Indo Silver Club
EXTD=
EXTT0=
EXTT1=
EXTT2=
EXTT3=
EXTT4=
EXTT5=
EXTT6=
EXTT7=
EXTT8=
EXTT9=
EXTT10=
EXTT11=
EXTT12=
EXTT13=
PLAYORDER=
